--- bitmaps/dright.xbm.orig	1994-12-17 21:41:33 UTC
+++ bitmaps/dright.xbm
@@ -1,6 +1,6 @@
 #define dright_width 16
 #define dright_height 16
-static char dright_bits[] = {
+static unsigned char dright_bits[] = {
    0x00, 0x00, 0x86, 0x01, 0x8e, 0x03, 0x9e, 0x07, 0xbe, 0x0f, 0xfe, 0x1f,
    0xfe, 0x3f, 0xfe, 0x7f, 0xfe, 0x7f, 0xfe, 0x3f, 0xfe, 0x1f, 0xbe, 0x0f,
    0x9e, 0x07, 0x8e, 0x03, 0x86, 0x01, 0x00, 0x00};
