--- bitmaps/done.xbm.orig	1994-12-17 21:29:47 UTC
+++ bitmaps/done.xbm
@@ -1,6 +1,6 @@
 #define done_width 16
 #define done_height 16
-static char done_bits[] = {
+static unsigned char done_bits[] = {
    0x00, 0x00, 0xff, 0x8f, 0xff, 0x67, 0x03, 0x30, 0x03, 0x18, 0x03, 0x4c,
    0x33, 0x6e, 0x7b, 0x67, 0xff, 0x67, 0xfb, 0x63, 0xf3, 0x63, 0xe3, 0x61,
    0xc3, 0x61, 0x83, 0x60, 0xff, 0x7f, 0xff, 0x7f};
