/* XPM */
static char *noname[] = {
/* width height ncolors chars_per_pixel */
"48 48 18 1",
/* colors */
"` c #000000",
"a c #F3BD14",
"b c #828796",
"c c #B2C0DC",
"d c #221C1D",
"e c #160011",
"f c #685A5E",
"g c #A0A3AC",
"h c #F6F6F3",
"i c #6E727E",
"j c #040304",
"k c #FCFCF7",
"l c #A28359",
"m c #DFCF80",
"n c #E3EDF1",
"o c #FFFFFF",
"p c #E1B11E",
"q c #EEEEED",
/* pixels */
"cccccccccccccccccccccccjjjjjjjjccccccccccccccccc",
"ccnooooooooooooooooooojjjjjjjffjoooooooooooooodc",
"cnqqqnqqqnqqqnqqqnqqqjjjjjjjjjfdjqqqqqnqhhhhhidc",
"conqnhnqnhnqnhnqnhnqjjjjjejjjjjjjjnnqnhnhhhhhidc",
"coqnqqqnqqqnqqqnqqqnjjjjjjjjjjjjjjqqnqqqhhhhgidc",
"conhnqnhnqnhnqnhnqnhjjjdjjjjjjjjjjjnhnqnnhhggidc",
"coqqqn``````````````jdgidjjigcfdjjj``````fgggidc",
"conqnh`iiiiiiiibibbbjhnhhjdqhhgjjjjbbbbbiobggidc",
"coqnqq`iiiiiiibbbbbbjcjdhddhjbhdjjjff`diioggcidc",
"conhnq`iiiibbbbbgbggjcjdfdehjbnfjjjf`dffiogcgidc",
"coqqqn`iiibbbbbbggggjdflaaaajihjjjjeeddfiocggidc",
"conqnh`iibbbggggggggjjpaaaaaappjjjj`ddffiogcgidc",
"coqnqq`ibbbbbgggggggjlpaaaaaappejjjddfffiocggidc",
"conhnq`ibbbgggbggbggjdpaaaaalppjjdjffffiiogggidc",
"coqqqn`ibbbgggbggbggdifpaalpppmdjjfjffiiiogggidc",
"conqnh`bbbggggggggggdbclpppgmcncjjjjdiiiiogggidc",
"coqnqq`ibbbgggbggbggjbncllgcchhhdjjjjiiiiogggidc",
"conhnq`bbbgggggggggdjqhccccnhhhhqjjejjiiiogggiec",
"coqqqn`ibbbbggbbgbdjghkhcchhhhhhkjjjjjiiiogggfdc",
"conqnh`ibbgbgggbgbjdhhhhhhhhkhhhhgjjjjjiiogggiec",
"coqnqq`ibbbbbgbgcjjbhhhkkhkkhhhhhqjjjjjjiogggfdc",
"conhnq`iibbbbbggjjjgcqhhnnhhhccccndjjjjjdogggiec",
"coqqqn`iiibbbbbbjjdckhhhqhhhkhhncchjdjjjjogggfec",
"conqnh`iiibbbbbjjjghhkqhhhhhhhhhkncjjjjjjjggbfec",
"coqnqq`iiiiibbbjdjhhhkkkhhhhkhhkhknnjjjjjjgggfec",
"conhnq`iiiiiibijjbhhhhkhhhkkhhhhhkhhdjjjjjbgbfjc",
"coqqqn`iiiiiiijdjhhhhkhqhkhhhkhhkhkhdjjjjjjbbfec",
"conqnn`iiiiiiijjfhhhhhhnkhkhhhhhhhhhfjjjjjjgbfjc",
"coqnqn`iiiiiijjjchhkhkhnhhhhhhkhhhhhbjjjjjjbbfec",
"connnn`iiiiiijdjqhhhkhhnhhhhhhkkhhhhgjjjjjjjbf`c",
"coqnnn`iiiiijjdjqhhhhkhnhhhhkhhkhhkhcjjjjjjjbfec",
"connnn`iiiiijjdjnhhkhhhnkhhhhhhhhhhhnjjjjjjjbf`c",
"connnngooooojpfdhkhhhkhnhhhhhhhhhhhhbdjjjjjjbf`c",
"connnnncncccpaalfhkhkhhnhhhhhhhhhhmpljjjjjjbbf`c",
"connncnccccmpaaafdhhhhknhhhhhhhhhhpapjjjjjpabf`c",
"connncccccmppaaaaejqhhhhhhhkhhhhhhpapejjjfaaif`c",
"cogiiiiilpppaaaaapjjnhkhkhhhhhkhhcpaplddlpaaff`c",
"ci`````ppaaaaaaaaadjjfqhhhhhkhhhhclppppppaaaa``c",
"cccccccaaaaaaaaaaapejjqhhhhhhhhhkclpppppaaaaaacc",
"cccccccpaaaaaaaaaaaljjqkhhhhhhkhhglpaaaaaaaaaapc",
"cccccccpaaaaaaaaaaaamhhhhkhhhhhhgjlpaaaaaaaaaaaa",
"cccccccpaaaaaaaaaaaapqhhkkhhhhhdjelpaaaaaaaaaaac",
"cccccccpaaaaaaaaaaaapfhhhkhhhbjjjelpaaaaaaaaaacc",
"cccccccpppaaaaaaaaaapljjjjjjjjjjjdppaaaaaaapcccc",
"ccccccclpppppppaaaappfejjjjjjjjjjdlpaaaapplccccc",
"ccccccci```lllpppppplfejj```````jdfppppplccccccc",
"ccccccccccccccffllllffccccccccccccdlplplcccccccc",
"cccccccccccccccccdfdfccccccccccccccdffdccccccccc"
};
