/* XPM */
static char * mgdiff_48x48_xpm[] = {
"48 48 510 2",
"  	c None",
". 	c #F6F6F6",
"+ 	c #F5F5F5",
"@ 	c #F4F4F4",
"# 	c #F3F3F3",
"$ 	c #F2F2F2",
"% 	c #F1F1F1",
"& 	c #F0F0F0",
"* 	c #EFEFEF",
"= 	c #EEEEEE",
"- 	c #EDEDED",
"; 	c #DB4654",
"> 	c #C01336",
", 	c #BC1036",
"' 	c #BB1037",
") 	c #B5133F",
"! 	c #A3215A",
"~ 	c #90458C",
"{ 	c #969ADD",
"] 	c #E5E7EF",
"^ 	c #ECC7CB",
"/ 	c #D31B30",
"( 	c #AD1546",
"_ 	c #4C64DD",
": 	c #EDEEF1",
"< 	c #DA2B3C",
"[ 	c #C50B2A",
"} 	c #2B4DDF",
"| 	c #E5828B",
"1 	c #CA1935",
"2 	c #BC0F36",
"3 	c #BE0F33",
"4 	c #6E3798",
"5 	c #A6B3ED",
"6 	c #D82637",
"7 	c #D50317",
"8 	c #B30C39",
"9 	c #6F3D9D",
"0 	c #A9B5EB",
"a 	c #ECC2C6",
"b 	c #C30829",
"c 	c #2E4ADA",
"d 	c #EDEEF2",
"e 	c #D50418",
"f 	c #163BDD",
"g 	c #E26B76",
"h 	c #6C2182",
"i 	c #90A0EA",
"j 	c #ECECEC",
"k 	c #D92839",
"l 	c #163ADC",
"m 	c #EFDADC",
"n 	c #D88697",
"o 	c #CA203C",
"p 	c #662389",
"q 	c #94A3E8",
"r 	c #ECC1C5",
"s 	c #C1082B",
"t 	c #2F4BDA",
"u 	c #D50519",
"v 	c #D30318",
"w 	c #3B31B6",
"x 	c #C9C7E6",
"y 	c #EBE3EB",
"z 	c #EAE2EA",
"A 	c #EBE2EA",
"B 	c #EBECF3",
"C 	c #E26C77",
"D 	c #8E175F",
"E 	c #6C7ADC",
"F 	c #EAE8EF",
"G 	c #F2F3F5",
"H 	c #D92939",
"I 	c #2237CF",
"J 	c #E0E3ED",
"K 	c #E58F98",
"L 	c #442DAC",
"M 	c #BDC6ED",
"N 	c #EEEFF3",
"O 	c #3433BD",
"P 	c #D1D6F0",
"Q 	c #8B1863",
"R 	c #6B82E6",
"S 	c #DFE2EC",
"T 	c #DB3D4C",
"U 	c #A81045",
"V 	c #4A65E1",
"W 	c #E36D78",
"X 	c #6C82E6",
"Y 	c #EBEBEB",
"Z 	c #EDD7D9",
"` 	c #C70624",
" .	c #2746DB",
"..	c #F0F0F2",
"+.	c #3433BE",
"@.	c #D1D6EF",
"#.	c #8A1863",
"$.	c #6C82E5",
"%.	c #F1EEEE",
"&.	c #D61124",
"*.	c #1939D9",
"=.	c #EEEFF2",
"-.	c #E9EAEE",
";.	c #65248A",
">.	c #A56FA3",
",.	c #B67DA6",
"'.	c #B87EA7",
").	c #B87FA7",
"!.	c #B0A1D1",
"~.	c #D5D9EC",
"{.	c #E16B76",
"].	c #A2114B",
"^.	c #794AA3",
"/.	c #B980A9",
"(.	c #B97FA8",
"_.	c #B789B4",
":.	c #B9C1EB",
"<.	c #E2E4EF",
"[.	c #F0EEEE",
"}.	c #D71D2F",
"|.	c #2C34C5",
"1.	c #D8DCEF",
"2.	c #EBC0C4",
"3.	c #2F4AD9",
"4.	c #DCDDE0",
"5.	c #CECECE",
"6.	c #C2C2C2",
"7.	c #D40519",
"8.	c #63248C",
"9.	c #8998DA",
"0.	c #DEDEDE",
"a.	c #E1E1E1",
"b.	c #D9636E",
"c.	c #2D4CDB",
"d.	c #EEEEF0",
"e.	c #F1EFEF",
"f.	c #2E33C3",
"g.	c #D5DAEF",
"h.	c #EABFC3",
"i.	c #2D48D7",
"j.	c #C6C7CB",
"k.	c #B7B7B7",
"l.	c #ACACAC",
"m.	c #D40418",
"n.	c #D40317",
"o.	c #761E78",
"p.	c #833871",
"q.	c #934675",
"r.	c #984B7A",
"s.	c #9B4E7D",
"t.	c #9F5080",
"u.	c #8C79B4",
"v.	c #AFB5CE",
"w.	c #CFCFCF",
"x.	c #C7C7C7",
"y.	c #D15A66",
"z.	c #A90F44",
"A.	c #7D3789",
"B.	c #A85B8A",
"C.	c #A95B8B",
"D.	c #AC5F8E",
"E.	c #AE6190",
"F.	c #AA6B9E",
"G.	c #A4AFE7",
"H.	c #D82839",
"I.	c #EFECEC",
"J.	c #D61427",
"K.	c #1B39D6",
"L.	c #E8E9EE",
"M.	c #E8E8E8",
"N.	c #DDB2B7",
"O.	c #2742D1",
"P.	c #95969A",
"Q.	c #868686",
"R.	c #7A7A7A",
"S.	c #3432BD",
"T.	c #AAAFC8",
"U.	c #DBDBDB",
"V.	c #E2E2E2",
"W.	c #EAEAEA",
"X.	c #E9E9E9",
"Y.	c #E7E7E7",
"Z.	c #DE6772",
"`.	c #657BDE",
" +	c #DDDDDD",
".+	c #DADADA",
"++	c #DEE1EB",
"@+	c #EDE0E1",
"#+	c #CC0520",
"$+	c #2141DA",
"%+	c #CCCDCF",
"&+	c #A97E82",
"*+	c #213CCA",
"=+	c #56575B",
"-+	c #888888",
";+	c #B2B2B2",
">+	c #CDD3ED",
",+	c #E26B77",
"'+	c #6980E3",
")+	c #DB5C68",
"!+	c #AE0E3E",
"~+	c #324FD1",
"{+	c #79797A",
"]+	c #5D5D5D",
"^+	c #63393D",
"/+	c #B7B7BB",
"(+	c #D1D1D1",
"_+	c #F7F7F7",
":+	c #E36C78",
"<+	c #DCDFEA",
"[+	c #D0999E",
"}+	c #582797",
"|+	c #4D5A93",
"1+	c #606060",
"2+	c #515151",
"3+	c #8A5F63",
"4+	c #2E49D8",
"5+	c #E5E5E9",
"6+	c #D82738",
"7+	c #E3E4E7",
"8+	c #E6E6E6",
"9+	c #E3E3E3",
"0+	c #DDD6D6",
"a+	c #CDA3AB",
"b+	c #B2435D",
"c+	c #8D1760",
"d+	c #2D44A9",
"e+	c #717171",
"f+	c #898989",
"g+	c #AFAFAF",
"h+	c #D4A9AD",
"i+	c #2F4BD9",
"j+	c #EAEBEF",
"k+	c #D0D6EF",
"l+	c #E4E4E4",
"m+	c #D72637",
"n+	c #D20319",
"o+	c #7A1D74",
"p+	c #4053A8",
"q+	c #9B9B9B",
"r+	c #B3B3B3",
"s+	c #E4B9BD",
"t+	c #C2082A",
"u+	c #D7D7D7",
"v+	c #DCDCDC",
"w+	c #D52B3B",
"x+	c #CF051D",
"y+	c #CE051D",
"z+	c #CF041D",
"A+	c #CD051E",
"B+	c #C70724",
"C+	c #B10D39",
"D+	c #891758",
"E+	c #562E7A",
"F+	c #5C557E",
"G+	c #999CA9",
"H+	c #CCCCCC",
"I+	c #E7BEC2",
"J+	c #BC0A30",
"K+	c #3450DB",
"L+	c #E9EAED",
"M+	c #D60E21",
"N+	c #CD051F",
"O+	c #3A38BE",
"P+	c #CFD5ED",
"Q+	c #E3707B",
"R+	c #D2061B",
"S+	c #891B66",
"T+	c #6F85E6",
"U+	c #CDCDCD",
"V+	c #B8B8B8",
"W+	c #919191",
"X+	c #626262",
"Y+	c #2E2E2E",
"Z+	c #0C0C0C",
"`+	c #242424",
" @	c #A2A2A2",
".@	c #CBCBCB",
"+@	c #D8D8D8",
"@@	c #E0E0E0",
"#@	c #E5E5E5",
"$@	c #BEBEBE",
"%@	c #B6B6B6",
"&@	c #9F9F9F",
"*@	c #252525",
"=@	c #070707",
"-@	c #090909",
";@	c #272727",
">@	c #838383",
",@	c #D5D5D5",
"'@	c #DFDFDF",
")@	c #848484",
"!@	c #3D3D3D",
"~@	c #0B0B0B",
"{@	c #000000",
"]@	c #1C1C1C",
"^@	c #949494",
"/@	c #D4D4D4",
"(@	c #BABABA",
"_@	c #C4C4C4",
":@	c #D0D0D0",
"<@	c #D3D3D3",
"[@	c #616161",
"}@	c #343434",
"|@	c #0E0E0E",
"1@	c #040404",
"2@	c #121212",
"3@	c #262626",
"4@	c #CACACA",
"5@	c #D9D9D9",
"6@	c #BDBDBD",
"7@	c #B5B5B5",
"8@	c #ABABAB",
"9@	c #AAAAAA",
"0@	c #6A6A6A",
"a@	c #969696",
"b@	c #9E9E9E",
"c@	c #999999",
"d@	c #959595",
"e@	c #464646",
"f@	c #222222",
"g@	c #282828",
"h@	c #C9C9C9",
"i@	c #BCBCBC",
"j@	c #5C5C5C",
"k@	c #6F6F6F",
"l@	c #646464",
"m@	c #181818",
"n@	c #373737",
"o@	c #393939",
"p@	c #323232",
"q@	c #1D1D1D",
"r@	c #1E1E1E",
"s@	c #131313",
"t@	c #3B3B3B",
"u@	c #353535",
"v@	c #4D4D4D",
"w@	c #5F5F5F",
"x@	c #828282",
"y@	c #575757",
"z@	c #333333",
"A@	c #3C3C3C",
"B@	c #545454",
"C@	c #989898",
"D@	c #D6D6D6",
"E@	c #C5C5C5",
"F@	c #2D2D2D",
"G@	c #161616",
"H@	c #030303",
"I@	c #020202",
"J@	c #292929",
"K@	c #2B2B2B",
"L@	c #505050",
"M@	c #313131",
"N@	c #535353",
"O@	c #878787",
"P@	c #7F7F7F",
"Q@	c #ADADAD",
"R@	c #BFBFBF",
"S@	c #7D7D7D",
"T@	c #232323",
"U@	c #0F0F0F",
"V@	c #2A2A2A",
"W@	c #5E5E5E",
"X@	c #797979",
"Y@	c #525252",
"Z@	c #2C2C2C",
"`@	c #9C9C9C",
" #	c #A6A6A6",
".#	c #C3C3C3",
"+#	c #C0C0C0",
"@#	c #363636",
"##	c #080808",
"$#	c #101010",
"%#	c #0A0A0A",
"&#	c #1F1F1F",
"*#	c #444444",
"=#	c #3E3E3E",
"-#	c #727272",
";#	c #565656",
">#	c #808080",
",#	c #3A3A3A",
"'#	c #141414",
")#	c #1B1B1B",
"!#	c #4A4A4A",
"~#	c #232224",
"{#	c #414141",
"]#	c #292729",
"^#	c #383838",
"/#	c #202020",
"(#	c #050505",
"_#	c #151515",
":#	c #424242",
"<#	c #6B6B6B",
"[#	c #6E6E6E",
"}#	c #858585",
"|#	c #C6C6C6",
"1#	c #303030",
"2#	c #1E2720",
"3#	c #19391B",
"4#	c #1B3411",
"5#	c #4E5A53",
"6#	c #517A53",
"7#	c #A6A5A6",
"8#	c #C8C8C8",
"9#	c #656565",
"0#	c #484848",
"a#	c #939393",
"b#	c #D2D2D2",
"c#	c #A7A7A7",
"d#	c #8A8A8A",
"e#	c #18421B",
"f#	c #08630B",
"g#	c #172B1F",
"h#	c #242324",
"i#	c #262526",
"j#	c #37423D",
"k#	c #3F853E",
"l#	c #A2A1A2",
"m#	c #5B5B5B",
"n#	c #686868",
"o#	c #3F3F3F",
"p#	c #171717",
"q#	c #0D0D0D",
"r#	c #454545",
"s#	c #555555",
"t#	c #7E7E7E",
"u#	c #A3A3A3",
"v#	c #787878",
"w#	c #111111",
"x#	c #B4B4B4",
"y#	c #2F2F2F",
"z#	c #1C4426",
"A#	c #11750F",
"B#	c #1D4113",
"C#	c #1F331C",
"D#	c #2A2D2C",
"E#	c #2B4A2E",
"F#	c #178E17",
"G#	c #248722",
"H#	c #647466",
"I#	c #6D6D6D",
"J#	c #494949",
"K#	c #060606",
"L#	c #2F392E",
"M#	c #278426",
"N#	c #2CA72C",
"O#	c #187C19",
"P#	c #1C701E",
"Q#	c #2B892B",
"R#	c #23A223",
"S#	c #2C822A",
"T#	c #2F322F",
"U#	c #C1C1C1",
"V#	c #595959",
"W#	c #B0B0B0",
"X#	c #6C6C6C",
"Y#	c #AEAEAE",
"Z#	c #383738",
"`#	c #4A674E",
" $	c #2D9C2D",
".$	c #2EA92F",
"+$	c #3DB23D",
"@$	c #2CA32C",
"#$	c #3B9D39",
"$$	c #5A6A5A",
"%$	c #313031",
"&$	c #191919",
"*$	c #636363",
"=$	c #A9A9A9",
"-$	c #8D8D8D",
";$	c #909090",
">$	c #4B4C4B",
",$	c #345D34",
"'$	c #3A7E3B",
")$	c #528052",
"!$	c #657E65",
"~$	c #576756",
"{$	c #4F4F50",
"]$	c #1A1A1A",
"^$	c #434343",
"/$	c #585858",
"($	c #A5A5A5",
"_$	c #A0A0A0",
":$	c #545254",
"<$	c #494649",
"[$	c #535153",
"}$	c #545354",
"|$	c #404040",
"1$	c #696969",
"2$	c #8C8C8C",
"3$	c #BBBBBB",
"4$	c #A8A8A8",
"5$	c #4C4C4C",
"6$	c #474747",
"7$	c #707070",
"8$	c #818181",
"9$	c #A4A4A4",
"0$	c #5A5A5A",
"a$	c #8B8B8B",
"b$	c #8E8E8E",
"c$	c #B9B9B9",
"d$	c #4E4E4E",
"e$	c #B1B1B1",
"f$	c #777777",
"g$	c #757575",
"h$	c #666666",
"i$	c #212121",
"j$	c #979797",
"k$	c #4B4B4B",
". + + @ @ # $ $ $ % $ % & & % $ # @ @ @ + + + . . . . . . . . . . . . . . . . . . . . . . . . . ",
"@ $ % & & * * = = * * * * * * * & % % % % # + + . . . . . . . . . . . . . . . . . . . . . . . . ",
"% * = - - - - = = * * * * & % % % % % & * & # @ + + + + + + + + + + + + + + + + + + + + + . . . ",
"= - ; > , , ' ) ! ~ { ] & $ $ $ $ $ ^ / ( _ : # @ < , , , , , , , [ } + + | 1 2 , , , , , 3 4 5 ",
"- - 6 7 7 7 7 7 7 7 7 8 9 0 # # $ # a 7 b c d # @ e 7 7 7 7 7 7 7 7 f + + g 7 7 7 7 7 7 7 7 h i ",
"j - k 7 l * & & m n o 7 7 p q # # # r 7 s t d # @ u v w x y z y y A B @ + C 7 D E y y z y z F G ",
"j = H 7 I J * % % % & K 7 7 L M # # r 7 s t N # @ u v O P @ + + . + . + + C 7 Q R + . + @ @ @ . ",
"j j k 7 I S * % % % % $ T 7 U V $ $ a 7 s t N @ # u v O P @ @ . + + + . + W 7 Q X . @ @ @ @ @ + ",
"Y j k 7 I J & & $ & % $ Z 7 `  ...# a 7 s t d $ # u v +.@.@ + @ @ @ . . + C 7 #.$.@ @ @ # # $ @ ",
"Y - k 7 I J = % % % % % %.&.7 *.=.$ r 7 s t -.= j u v ;.>.,.,.'.).!.~.& % {.7 ].^./.(./.(._.:.$ ",
"j j k 7 I <.* & % % & % [.}.7 |.1.$ 2.7 s 3.4.5.6.7.7 7 7 7 7 7 7 8.9.0.a.b.7 7 7 7 7 7 7 s c.d.",
"j j k 7 I J & % & % & & e.}.7 f.g.% h.7 s i.j.k.l.m.n.o.p.q.r.s.t.u.v.w.x.y.7 z.A.B.C.D.E.F.G.* ",
"j j H.7 I S * % * * * & I.J.7 K.L.M.N.7 s O.P.Q.R.m.v S.T.U.V.U.W.X.X.Y.Y Z.7 #.`. +.+.+a.X.= & ",
"j - H.7 I ++= = * = = = @+7 #+$+%+k.&+7 s *+=+-+;+7.v O >+$ # + + + + . + ,+7 Q '+* = - Y Y - & ",
"j j H.7 I ++- - - j j Y )+7 !+~+{+]+^+7 s O./+(+V.u v O P @ + . . + _+_+_+:+7 Q R @ + @ # $ % % ",
"W.W.H.7 I <+Y W.X.M.V.[+7 7 }+|+1+2+3+7 s 4+5+= = u v O P @ + + . + + . . :+7 Q X _+. . + # # # ",
"X.X.6+7 *.7+8+9+0+a+b+7 7 c+d+e+f+g+h+7 s i+j+% % u v O k+@ @ @ @ @ @ + + :+7 Q R . . . + + @ @ ",
"l+l+m+7 7 7 7 7 7 7 7 n+o+p+q+r+(+ +s+7 t+3.j+% % u v O k+# # @ @ # @ @ @ C 7 Q R + + . @ + + + ",
"u+v+w+x+y+z+A+B+C+D+E+F+G+H+.+V.M.X.I+7 J+K+L+= = M+N+O+P+$ $ $ # # $ # # Q+R+S+T++ . + + @ @ @ ",
"U+U+x.V+W+X+Y+Z+`+]+ @.@+@@@9+#@Y.M.Y Y X.X.W.Y Y j * * * * & % % $ $ $ $ $ @ @ @ @ @ @ + @ @ @ ",
"$@%@&@X+*@=@-@;@>@V+,@'@V.a.V.a.a.a.@@9+0..+V.l+#@8+M.M.W.j j - - * * % % $ $ @ # @ # # @ @ @ @ ",
" @)@!@~@{@~@]@^@U+U.0.'@0.'@0./@5.w.(+U+(@_@:@:@<@/@:@(+'@@@@@l+Y.W.Y Y = = * % % $ $ # @ # # @ ",
"[@}@|@1@2@3@-+4@U.@@@@a.'@5@:@6@;+7@8@9@0@a@b@q+c@^@d@8@l.(@x..@:@u+v+9+8+X.Y - * % % $ $ $ $ $ ",
"e@3@Z+f@g@W+(+'@V.l+V.'@u+h@i@^@j@k@l@[@m@n@o@p@q@r@s@t@u@v@w@>@x@c@k.x.<@.+V.8+Y j - & % % % % ",
"y@z@A@B@C@<@0.9+8+#@@@D@E@l.-+F@G@H@I@-@r@*@`+`+3@J@F@3@K@L@2+M@q@K@N@O@ @V+x.+@a.8+W.j = = * % ",
"P@k@d@Q@<@ +9+Y.8+V.:@R@S@v@]@H@{@{@2@`+T@T@T@T@T@T@g@g@*@U@Z+V@W@X@Y@Z@!@1+`@ #.#<@ +l+M.Y Y j ",
"k.+#x.<@0.a.l+Y.9+/@9@@#!@F@##H@I@$#T@T@T@T@T@T@f@T@T@T@`+m@%#&#n@*#=#-#;#3@!@1+>#r+x.(+U.l+Y.#@",
",@w.D@U.@@9+#@V.U.;+=#,#T@'#)#Z@!#!@T@T@T@~#T@`+{#]#^#/#f@T@(#~@U@]@f@_#:#<#X+B@[#}#&@$@x.5@V.l+",
".+5@ +@@l+l+9+0.|#1+1#s@##V@k@>@>@3@f@2#3#4#~#z@5#6#7#8#9#T@{#}@U@_#G@2@`+;@p@0#L@<#a#l.R@b#a.l+",
"0.0.V.8+8+8+@@+@^@z@Z+##m@-#c#c#d#f@1#e#f#g#h#i#j#k#|#l#m#;@n#(@b@o#u@v@p###q#G@r#s#t#u#6.u+9+8+",
"#@9+8+M.M.8+@@w.v#J@s@w#;#l.R@x#Q.y#y#z#A#B#C#D#E#F#G#H#o#3@k@:@u+x.X@I#J#Z+K#$#}@9#q+|#D@@@#@Y.",
"W.M.W.W.W.Y.'@6.[@f@##g@&@.#|#$@q+o#K@L#M#N#O#P#Q#R#S#T#Z@g@a@.+'@U#!#*#V#e@J#e@X+`@6.+@l+8+X.W.",
"j j j j Y Y.5@W#X#J@q#1+i@8#H+_@Y#[@3@Z#`# $.$+$@$#$$$%$`+o@_@9+'@k@=#T@&$!@*$x@=$x. +l+M.j * j ",
"- = = - j Y.,@l.I#T@&$-$U#h@(+5.6@;$t@o#>$,$'$)$!$~${$^#V@f+@@9+X@]$^$J@!@/$m#($(+l+X.Y - * * = ",
"- * * = - M..+r+}#o#m#_$+#U+<@<@5.(@>@B@X+:$<$[$}$;#|$}@1$.+a.)@^#!#*#J@=#2$3$.@l+Y - * & & $ * ",
"- % % $ * X.'@_@ @n#d#4$3$|#(+D@/@w.(@2$X#5$N@6$V#5$@#7$.@,@8$*#[@;@r@/$R._$D@l+= * & & % % # & ",
"* $ # $ & j @@.@Q@a#9$g+Y#k.x.<@/@/@5.E@4$R.0$2+[@>#($H+Q@x@M@W@|$)#^$W@`@/@V.= & % % # $ # # & ",
"$ # # # % * 9+5.$@&@a$b$a$a#W#.#5.w.<@/@U+E@U#_@(+5.c$2$e+s#k@J#&#0#d$($/@M.% $ $ # $ # # # # % ",
"# + + # $ & l+U+e$f$n@M@Y@B@f$q+W#6@_@h@h@_@|#c$c@;$a#7$g$6$o@l@t@7$g+u+8+& $ # # # # @ @ # # $ ",
"# . + @ @ * l+/@W#X@5${#Y+^$Y@[@[@I#1+1$n#h$S@1+k@v#W@V#A@^#*#X+a#i@.+M.= % $ # # # # # $ # $ % ",
"# . . @ @ * Y.D@%@a$W@o@M@/#i$]$`+*@&#V@V@{#@#K@y#0#Y+J#A@!#X@x#(+a.W.* % $ $ $ # @ # $ $ % % % ",
"# . . + # % X.0.h@r+>#y@A@g@]@'#q#%#K#=@s@2@|@|@r@}@o#I#>#a#|#v+#@W.* % $ $ # # $ $ % % & % = & ",
"# . + + % % - #@D@_@Q@j$X@W@k$:#^#F@f@p#f@/#'#r@F@y@7$b@x#(+.+Y.W.= % % $ $ # $ $ % % & & * - * ",
"@ _++ @ % & = Y @@b#|#i@Q@9$_$j$W+b$x@9#O@S@f$>@_$7@U#5.U.9+8+X.- & & % $ # $ $ % % * * = - - = ",
"@ . . @ $ * - W.Y. +,@U+4@.#U#+#U#R@k.g++#+#+#+#w.D@5@@@#@M.Y - = * & $ % % $ % % & * = * = = * ",
"@ . + @ $ & = j Y #@ +D@b#(+(+(+(+b#:@H+<@b#b#D@+@v+'@9+M.Y j = * * % $ % % % $ & = & * * = = * ",
"@ . + @ $ $ & - - X.9+0.5@u+D@u+u+u+u++@U.v+ +@@V.l+8+M.W.- = = * & & $ $ $ % & & * & & & & * % ",
"+ + + @ # $ $ & = j j #@'@v+5@.+.+U.v+ +0.@@V.9+#@8+M.Y Y - = = = * & * $ & & & & & $ % % % & $ "};
