/* XPM */
static char *noname[] = {
/* width height ncolors chars_per_pixel */
"48 47 18 1",
/* colors */
"` c #858678",
"a c #B2C0DC",
"b c #3D4C41",
"c c #14E314",
"d c #E3DF2A",
"e c #4E5151",
"f c #3F3D3F",
"g c #101214",
"h c #686560",
"i c #020102",
"j c #2F3538",
"k c #A30E1C",
"l c #7D6F73",
"m c #00018D",
"n c #545851",
"o c #A19685",
"p c #356E3B",
"q c #242134",
/* pixels */
"aaaaaaaaaaaaaaaaaaaaaaaaaaaaaaaaaaaaaaaaaaaaaaaa",
"aaaaaaaaaaaaaaaaaaaaaaaaa`aaaaaaaaaaaaaaaaaaaaaa",
"aaaaaaaaaaaaaaaaaaaaaaaa``aaaaaaaaaaaaaaaaaaaaaa",
"aaaaaaaaaaaaaaaaaaaaakkkkig``aaaaaaaaaaaaaaaaaaa",
"aaaaaaaaaaaaaaaaaaa`kkggqfqiqo`aaaaaaaaaaaaaaaaa",
"aaaaaaaaaaaaaaaaaooqgkkgkkbfgifo`aaaaaaaaaaaaaaa",
"aaaaaaaaaaaaaaa``qggikkkkkjbffqgbaaaaaaaaaaaaaaa",
"aaaaaaaaaaaaaaoqiqfgikkkkkfjbnejqqn`aaaaaaaaaaaa",
"aaaaaaaaaao`lggqeeebkkkkkkkkqjgjbfiboaaaaaaaaaaa",
"aaaaaaaaaahdpbqgqqjebbpbkkkkkkkkbegoaaaaaaaaaaaa",
"aaaaaaaaagiddddddbqqqjfbpfkkkkkkpeg`aaaaaaaaaaaa",
"aaaaaoafiiidbjhdddddpbqqqqgkkknpefq`aaaaaaaaaaaa",
"aaaoofiqfqgddqjgjdddddddhdpkkppeeqn`aaaaaaaaaaaa",
"`ooeggjebqgpdggpdddjppddddhfpbeebqoaaaaaaaaaaaaa",
"abgqjbbfbqgqdpddd`ejjjdddhebnneeejeaaaaaaaaaaaaa",
"oibeefefefggddddnjjegpd`ejeenefenfjfl`aaaaaaaaaa",
"aiqnebbfneqgbdhmjjbhenhjeneeeenbgqa`eqaaaaaaaaaa",
"`gijebffnnqqjdegbeeeenneeeebfnejlhooejqhaaaaaaaa",
"o`iijnefenqqgddddefnenhnefeenhifa`afjnngqaaaaaaa",
"aoiiijhnfnbggddddfnenneeebnehqioaa`afjnhegn`aaaa",
"a`iigiqnefggpdd`jeheennenhebcccphla```qjffqfaoaa",
"a`figiiqnnjqpdhjehnnneenhjpccccccoooa`aehleege`a",
"aaoigggijhhbeejnhnnenenhjgcgigccphn`oa``alnhgh`a",
"aa`iigggiqenehnnhnneehhnqccqgccchjccolaahehbg`aa",
"aa`giggggifhhnehejmpnnnbqpcpccphljccjhaenhnih`aa",
"aa`higgggiqlneenbmmnjmmhqgcccblleqccfllnhbgiaaaa",
"aaaoiigggiqhnnnejimmmmm`fipcccccccccehh`fgin`aaa",
"aaaoeigggighebnejimmmmn`lfggcccccccph`ljgiioaaaa",
"aaaaofiggginnnhegmmqmmmhhhnpggpcpgghllqgiioaaaaa",
"aaaaa`jigginnnnqgmmimmmmhh`hpppppghohqgigaaaaaaa",
"aaaaaa`qigiflhhhbmejqmmmmhpfm`nnh``hqgiq`aaaaaaa",
"aaaaaaa`giiijhhhhhhbqgmmmmjmmhhl`lfqgij`aaaaaaaa",
"aaaaaaaaaiiiifhhhnhhnqgmmmmmm`lhleqgif`aaaaaaaaa",
"aaaaaaaaaaiiiijl`hhlhnjgmmmmh`lhbqginoaaaaaaaaaa",
"aaaaaaaaaaoiiiiflhnhh`hfqmgjh`hfqgih`aaaaaaaaaaa",
"aaaaaaaaaaaoiiiiflhhhlhhhhnh`hqqgilaaaaaaaaaaaaa",
"aaaaaaaaaaaaoiigieohnhnhhhllnqggi`aaaaaaaaaaaaaa",
"aaaaaaaaaaaaa`iiiiflhnnhll`ngqgi`aaaaaaaaaaaaaaa",
"aaaaaaaaaaaaaaliigieohnnh`ngqgioaaaaaaaaaaaaaaaa",
"aaaaaaaaaaaaaaahiiiinoh``ngqigoaaaaaaaaaaaaaaaaa",
"aaaaaaaaaaaaaaaonigiib`hfggig`aaaaaaaaaaaaaaaaaa",
"aaaaaaaaaaaaaaaaobigiiffqgij`aaaaaaaaaaaaaaaaaaa",
"aaaaaaaaaaaaaaaaa`jigigjgif`aaaaaaaaaaaaaaaaaaaa",
"aaaaaaaaaaaaaaaaaa`gigqqin`aaaaaaaaaaaaaaaaaaaaa",
"aaaaaaaaaaaaaaaaaaa`iiiin`aaaaaaaaaaaaaaaaaaaaaa",
"aaaaaaaaaaaaaaaaaaaa`iihaaaaaaaaaaaaaaaaaaaaaaaa",
"aaaaaaaaaaaaaaaaaaaa`oo`aaaaaaaaaaaaaaaaaaaaaaaa"
};
